<svg width="204" height="204" viewBox="0 0 204 204" fill="none" xmlns="http://www.w3.org/2000/svg">
<path fill-rule="evenodd" clip-rule="evenodd" d="M54.0833 130C54.0833 156.464 75.5364 177.917 102 177.917C128.464 177.917 149.917 156.464 149.917 130C149.917 103.536 128.464 82.0833 102 82.0833C75.5364 82.0833 54.0833 103.536 54.0833 130ZM102 80C74.3858 80 52 102.386 52 130C52 157.614 74.3858 180 102 180C129.614 180 152 157.614 152 130C152 102.386 129.614 80 102 80Z" fill="#0E0807"/>
<path fill-rule="evenodd" clip-rule="evenodd" d="M95.7498 96.6667C96.9004 96.6667 97.8332 95.7339 97.8332 94.5833C97.8332 93.4327 96.9004 92.5 95.7498 92.5C94.5993 92.5 93.6665 93.4327 93.6665 94.5833C93.6665 95.7339 94.5993 96.6667 95.7498 96.6667ZM118.617 95.731C119.297 95.6609 120.008 95.625 120.75 95.625C121.325 95.625 121.792 95.1586 121.792 94.5833C121.792 94.008 121.325 93.5416 120.75 93.5416C119.941 93.5416 119.159 93.5808 118.404 93.6586C117.831 93.7176 117.415 94.2293 117.474 94.8016C117.533 95.3738 118.045 95.7899 118.617 95.731ZM111.027 98.7927C111.46 98.4144 111.505 97.7564 111.127 97.3229C110.748 96.8895 110.09 96.8448 109.657 97.2231C108.452 98.2745 107.446 99.5304 106.636 100.965C106.353 101.466 106.53 102.101 107.031 102.384C107.532 102.667 108.167 102.49 108.45 101.989C109.151 100.747 110.011 99.6791 111.027 98.7927ZM106.241 110.125C106.282 109.551 105.849 109.053 105.276 109.012C104.702 108.971 104.204 109.404 104.163 109.978C104.11 110.729 104.083 111.501 104.083 112.292C104.083 112.867 104.55 113.333 105.125 113.333C105.7 113.333 106.167 112.867 106.167 112.292C106.167 111.547 106.192 110.825 106.241 110.125ZM79.0831 102.917C78.5078 102.917 78.0415 103.383 78.0415 103.958C78.0415 104.534 78.5079 105 79.0832 105C82.9397 105 86.0032 105.385 88.5876 106.645C91.1424 107.891 93.3434 110.049 95.3511 113.823C95.6213 114.33 96.2521 114.523 96.7599 114.253C97.2678 113.983 97.4605 113.352 97.1903 112.844C95.0313 108.786 92.5448 106.257 89.5006 104.773C86.486 103.303 83.0392 102.917 79.0831 102.917ZM89.4986 130.99C89.5273 131.564 89.0848 132.053 88.5102 132.082C86.9527 132.16 83.8609 132.887 80.8516 134.672C77.8613 136.446 75.0402 139.209 73.8326 143.315C73.6702 143.867 73.0912 144.183 72.5393 144.02C71.9874 143.858 71.6716 143.279 71.8339 142.727C73.2304 137.979 76.4857 134.839 79.7888 132.88C83.0729 130.932 86.4915 130.097 88.4062 130.001C88.9808 129.973 89.4699 130.415 89.4986 130.99ZM92.8407 139.07C93.2475 138.663 93.2475 138.004 92.8407 137.597C92.4339 137.19 91.7744 137.19 91.3676 137.597C89.5049 139.459 88.2108 141.07 87.4176 143.19C86.6338 145.284 86.375 147.782 86.375 151.354C86.375 151.929 86.8414 152.396 87.4166 152.396C87.9919 152.396 88.4583 151.929 88.4583 151.354C88.4583 147.843 88.7203 145.653 89.3688 143.92C90.0079 142.212 91.0575 140.853 92.8407 139.07ZM104.083 141.458C104.083 140.883 103.617 140.417 103.042 140.417C102.466 140.417 102 140.883 102 141.458V143.976C102 144.551 102.466 145.017 103.042 145.017C103.617 145.017 104.083 144.551 104.083 143.976V141.458ZM104.083 154.045C104.083 153.47 103.617 153.003 103.042 153.003C102.466 153.003 102 153.47 102 154.045V158.212C102 158.787 102.466 159.253 103.042 159.253C103.617 159.253 104.083 158.787 104.083 158.212V154.045ZM104.083 164.809C104.083 164.234 103.617 163.767 103.042 163.767C102.466 163.767 102 164.234 102 164.809V166.458C102 167.034 102.466 167.5 103.042 167.5C103.617 167.5 104.083 167.034 104.083 166.458V164.809ZM116.583 128.958C116.584 128.383 117.05 127.917 117.625 127.917C121.071 127.917 123.898 129.248 127.123 131.785C127.576 132.141 127.654 132.796 127.298 133.248C126.942 133.7 126.287 133.779 125.835 133.423C122.811 131.044 120.429 130 117.625 130C117.05 130 116.583 129.534 116.583 128.958ZM118.818 114.501C116.817 114.795 115.023 115.617 113.042 117.103C112.581 117.448 111.928 117.355 111.583 116.894C111.238 116.434 111.332 115.781 111.792 115.436C113.977 113.797 116.09 112.796 118.515 112.44C120.919 112.086 123.544 112.379 126.732 113.176C127.29 113.315 127.629 113.881 127.49 114.439C127.35 114.997 126.785 115.337 126.227 115.197C123.165 114.432 120.841 114.203 118.818 114.501ZM83.4502 118.395C84.0018 118.558 84.5813 118.243 84.7445 117.692C84.9076 117.14 84.5926 116.56 84.0409 116.397C83.2004 116.149 82.363 115.968 81.5107 115.854C80.9405 115.777 80.4161 116.177 80.3394 116.747C80.2627 117.317 80.6627 117.842 81.2328 117.918C81.9762 118.018 82.7091 118.176 83.4502 118.395ZM88.7012 118.409C88.1973 118.132 87.5638 118.315 87.2862 118.819C87.0086 119.323 87.1921 119.956 87.696 120.234C88.0309 120.419 88.3727 120.614 88.7228 120.822C89.2175 121.116 89.8566 120.953 90.1502 120.458C90.4437 119.963 90.2806 119.324 89.7859 119.031C89.4184 118.812 89.0572 118.605 88.7012 118.409ZM76.6562 117.956C77.227 117.883 77.6309 117.362 77.5585 116.791C77.486 116.22 76.9647 115.816 76.3939 115.889C75.9865 115.941 75.5714 116.003 75.1474 116.075C74.5802 116.171 74.1985 116.709 74.2949 117.276C74.3912 117.843 74.9291 118.225 75.4962 118.129C75.8939 118.061 76.28 118.003 76.6562 117.956ZM134.292 116.458C134.292 117.609 133.359 118.542 132.208 118.542C131.058 118.542 130.125 117.609 130.125 116.458C130.125 115.308 131.058 114.375 132.208 114.375C133.359 114.375 134.292 115.308 134.292 116.458ZM114.5 96.6667C115.075 96.6667 115.542 96.2003 115.542 95.625C115.542 95.0497 115.075 94.5834 114.5 94.5834C113.925 94.5834 113.458 95.0497 113.458 95.625C113.458 96.2003 113.925 96.6667 114.5 96.6667ZM80.1251 157.083C80.1251 158.234 79.1924 159.167 78.0418 159.167C76.8912 159.167 75.9585 158.234 75.9585 157.083C75.9585 155.933 76.8912 155 78.0418 155C79.1924 155 80.1251 155.933 80.1251 157.083ZM70.169 119.098C69.7776 120.18 68.5832 120.74 67.5012 120.349C66.4193 119.957 65.8595 118.763 66.2509 117.681C66.6423 116.599 67.8367 116.039 68.9187 116.431C70.0006 116.822 70.5605 118.016 70.169 119.098ZM106.013 121.193C105.078 118.314 101.005 118.314 100.069 121.193L99.712 122.293C99.5726 122.722 99.1726 123.012 98.7213 123.012H97.565C94.5378 123.012 93.2791 126.886 95.7282 128.666L96.6637 129.345C97.0288 129.61 97.1815 130.081 97.0421 130.51L96.6847 131.61C95.7493 134.489 99.0445 136.883 101.494 135.103L102.429 134.424C102.794 134.158 103.289 134.158 103.654 134.424L104.589 135.103C107.038 136.883 110.333 134.489 109.398 131.61L109.041 130.51C108.901 130.081 109.054 129.61 109.419 129.345L110.355 128.666C112.804 126.886 111.545 123.012 108.518 123.012H107.361C106.91 123.012 106.51 122.722 106.371 122.293L106.013 121.193ZM102.051 121.837C102.363 120.877 103.72 120.877 104.032 121.837L104.389 122.936C104.808 124.224 106.008 125.096 107.361 125.096H108.518C109.527 125.096 109.946 126.387 109.13 126.98L108.195 127.66C107.099 128.455 106.641 129.866 107.059 131.154L107.417 132.253C107.728 133.213 106.63 134.011 105.814 133.418L104.878 132.738C103.783 131.942 102.3 131.942 101.205 132.738L100.269 133.418C99.4527 134.011 98.3543 133.213 98.6661 132.253L99.0234 131.154C99.4418 129.866 98.9835 128.455 97.8882 127.66L96.9527 126.98C96.1364 126.387 96.5559 125.096 97.565 125.096H98.7213C100.075 125.096 101.275 124.224 101.693 122.936L102.051 121.837ZM134.292 136.25C133.716 136.25 133.25 136.716 133.25 137.292C133.25 137.867 133.716 138.333 134.292 138.333C134.867 138.333 135.333 137.867 135.333 137.292C135.333 136.716 134.867 136.25 134.292 136.25ZM131.167 137.292C131.167 135.566 132.566 134.167 134.292 134.167C136.017 134.167 137.417 135.566 137.417 137.292C137.417 139.018 136.017 140.417 134.292 140.417C132.566 140.417 131.167 139.018 131.167 137.292ZM126.106 146.78C126.134 144.951 123.704 144.077 122.56 145.505L122.334 145.788C121.823 146.426 120.93 146.662 120.122 146.371L119.765 146.243C117.959 145.593 116.42 147.514 117.519 149.046L117.736 149.35C118.228 150.035 118.214 150.931 117.703 151.569L117.476 151.852C116.333 153.28 117.811 155.341 119.634 154.86L119.995 154.765C120.81 154.55 121.695 154.868 122.186 155.553L122.404 155.856C123.503 157.388 125.955 156.741 125.983 154.912L125.988 154.549C126.001 153.731 126.561 153.032 127.376 152.817L127.737 152.722C129.56 152.241 129.597 149.779 127.792 149.13L127.434 149.001C126.627 148.711 126.088 147.96 126.101 147.142L126.106 146.78Z" fill="#0E0807"/>
</svg>
