<svg xmlns="http://www.w3.org/2000/svg" viewBox="0 0 204 204"><defs><style>.cls-1,.cls-3{fill:#0e0807;}.cls-2,.cls-4{fill:#eae8e1;}.cls-2,.cls-3,.cls-4{stroke:#0e0807;stroke-linecap:round;stroke-linejoin:round;}.cls-3,.cls-4{stroke-width:0.75px;}</style></defs><g id="Warstwa_2" data-name="Warstwa 2"><path class="cls-1" d="M139.58,117.67,124.69,125l-5.18,1.22-10.78.17-8.46-2.18-7-4.15-3.21-2.72a31.56,31.56,0,0,0,4.38,1.94h0a32,32,0,0,0,16.61,1.3,38,38,0,0,0,6.69-1.63,21.2,21.2,0,0,0,4.54-2.52l6.72-4.53,9.7-6.54,6.68-4.51a9.33,9.33,0,0,1,13,2.53Z"/><path class="cls-1" d="M112.75,112.75a20.43,20.43,0,0,1-4,2.88,23.37,23.37,0,0,1-2.79,1.21h0c-.53.2-1.12.4-1.77.61h0l-1.46.46a30,30,0,0,1-8.25,1.38l4,3,9.31.7,9,.16,10.6-4.55,1.6-6.68L145,96.46a8.79,8.79,0,0,0-12.4-.88l-5.73,5"/><path class="cls-2" d="M86.49,114.26l2.76,2.38.84.72,2,1.74.22.18a32,32,0,0,0,21.29,7.6l1.07,0,.94,0c5.59-.29,7.27-.86,10.75-2.58l13.21-6.55,4.54-2.25,7.22-3.57a9.32,9.32,0,0,1,12.5,4.22L120,140.93l-13,6.47a15.49,15.49,0,0,1-11.78.8l-5.48-1.86-.36-.12a107.55,107.55,0,0,0-19.69-4.64c-1-.14-2-.27-3-.37a107.26,107.26,0,0,0-17.29-.5l-7.66.4s-6-12.45-1.52-29.31a107.07,107.07,0,0,0,14.38-1.72c.74-.15,1.5-.29,2.24-.45a109.25,109.25,0,0,0,14.66-4.19"/><line class="cls-1" x1="126.84" y1="100.54" x2="112.75" y2="112.75"/><path class="cls-2" d="M86.49,114.26c.27.24,4-2.38,4.35-2.61C93,110.24,95,107.89,97.39,107a12.62,12.62,0,0,1,1.49-.41c4-.9,7.34-2.18,10.11-5.32a15.23,15.23,0,0,0,3.86-9.91c0-.34,0-.68,0-1l-9.53,3.48-13.68,5-18.18,6.64"/><path class="cls-3" d="M122.9,62a7,7,0,0,0-11.84-5.1h0a7,7,0,0,0-2.47-1.51V55h-2.74v0a7,7,0,0,0-4.71,11.83h0l9.93,9.93h2.35V74.43L121,66.85h0A7,7,0,0,0,122.9,62Z"/><path class="cls-4" d="M125.25,62a7,7,0,0,0-11.85-5.1h0a7,7,0,0,0-9.92,9.93h0l9.93,9.93,9.93-9.93h0A7,7,0,0,0,125.25,62Z"/></g></svg>