<svg xmlns="http://www.w3.org/2000/svg" viewBox="0 0 204 204"><defs><style>.cls-1{fill:#eae8e1;}.cls-1,.cls-2{stroke:#0e0807;stroke-linecap:round;stroke-linejoin:round;stroke-width:0.75px;}.cls-2{fill:#0e0807;}</style></defs><g id="Warstwa_2" data-name="Warstwa 2"><path class="cls-1" d="M48.33,102c0,9.62,5.25,17.42,11.74,17.42a7.53,7.53,0,0,0,1.25-.1A67.27,67.27,0,0,0,63.54,102a67.12,67.12,0,0,0-2.22-17.3,7.53,7.53,0,0,0-1.25-.1C53.58,84.59,48.33,92.39,48.33,102Z"/><path class="cls-2" d="M90,102c0-14-7.62-25.27-17-25.27a19.05,19.05,0,0,0-5.49.82c-5.26,2-9.52,7.7-11.51,15.08a37.18,37.18,0,0,0,0,18.74c2,7.38,6.26,13,11.51,15.07a12.86,12.86,0,0,0,1.24.41v26.4H76V126.83C84,124.68,90,114.39,90,102Z"/><path class="cls-1" d="M94.7,102c0-14-7.62-25.27-17-25.27a12,12,0,0,0-4.31.82c-5.25,2-9.51,7.7-11.5,15.08a36.88,36.88,0,0,0,0,18.74c2,7.38,6.25,13,11.5,15.07.41.16.82.29,1.24.41v26.4h6.15V126.83C88.69,124.68,94.7,114.39,94.7,102Z"/><path class="cls-2" d="M155.67,102c0,21.52-11.75,39-26.26,39a18.21,18.21,0,0,1-6.66-1.27c-8.09-3.14-14.67-11.86-17.74-23.24a57.14,57.14,0,0,1,0-28.92c3.07-11.38,9.64-20.1,17.74-23.24A18.21,18.21,0,0,1,129.41,63C143.92,63,155.67,80.48,155.67,102Z"/><path class="cls-1" d="M122.75,139.7l-41.41-18A21.08,21.08,0,0,1,67.75,102h0A21.08,21.08,0,0,1,81.34,82.29l41.41-18"/><path class="cls-1" d="M142.35,102c0,18.11-8.33,33.34-19.6,37.71-8.09-3.14-14.67-11.86-17.74-23.24a57.14,57.14,0,0,1,0-28.92c3.07-11.38,9.64-20.1,17.74-23.24C134,68.67,142.35,83.89,142.35,102Z"/><path class="cls-1" d="M115.86,102c0,8-4.39,14.55-9.8,14.55a6.11,6.11,0,0,1-1-.08,57.14,57.14,0,0,1,0-28.92,6.12,6.12,0,0,1,1-.09C111.47,87.45,115.86,94,115.86,102Z"/></g></svg>