<svg width="204" height="204" viewBox="0 0 204 204" fill="none" xmlns="http://www.w3.org/2000/svg">
<path fill-rule="evenodd" clip-rule="evenodd" d="M54.0833 130C54.0833 156.464 75.5364 177.917 102 177.917C128.464 177.917 149.917 156.464 149.917 130C149.917 103.536 128.464 82.0833 102 82.0833C75.5364 82.0833 54.0833 103.536 54.0833 130ZM102 80C74.3858 80 52 102.386 52 130C52 157.614 74.3858 180 102 180C129.614 180 152 157.614 152 130C152 102.386 129.614 80 102 80Z" fill="#0E0807"/>
<path d="M95.9169 114.972L102 98.75L108.083 114.972C109.676 119.219 106.536 123.75 102 123.75C97.464 123.75 94.3242 119.219 95.9169 114.972Z" fill="#0E0807"/>
<path fill-rule="evenodd" clip-rule="evenodd" d="M102 97.7083C102.434 97.7083 102.823 97.9777 102.975 98.3843L109.058 114.606C110.907 119.535 107.263 124.792 102 124.792C96.7365 124.792 93.0932 119.535 94.9414 114.606L101.025 98.3843C101.177 97.9777 101.566 97.7083 102 97.7083ZM102 101.717L96.8921 115.338C95.5547 118.904 98.1911 122.708 102 122.708C105.809 122.708 108.445 118.904 107.108 115.338L102 101.717Z" fill="#0E0807"/>
<path fill-rule="evenodd" clip-rule="evenodd" d="M70.857 132.211C69.7547 131.691 68.4384 132.035 67.7307 133.027C66.8408 134.275 67.2616 136.021 68.6221 136.727L87.7241 146.633C90.4051 148.024 93.3811 148.75 96.4012 148.75H122.833V135.739L116.646 133.093C115.195 132.472 113.581 132.339 112.047 132.714L98.3686 136.057C98.2695 136.081 98.1678 136.094 98.0657 136.094H89.8546C88.5083 136.094 87.4168 137.185 87.4168 138.532C87.4168 139.855 88.4723 140.936 89.7951 140.969L109.838 141.459C110.413 141.473 110.868 141.95 110.854 142.525C110.84 143.101 110.362 143.555 109.787 143.541L89.7442 143.051C87.4672 142.996 85.6172 141.264 85.3632 139.053L70.857 132.211ZM85.6439 136.882L71.7457 130.327C69.7321 129.377 67.3274 130.005 66.0346 131.817C64.4089 134.097 65.1776 137.287 67.6629 138.576L86.7649 148.483C89.7423 150.027 93.0472 150.833 96.4012 150.833H122.833V152.917C122.833 154.643 124.233 156.042 125.958 156.042H133.25C133.825 156.042 134.292 155.575 134.292 155C134.292 154.425 133.825 153.958 133.25 153.958H125.958C125.383 153.958 124.917 153.492 124.917 152.917V149.799L124.917 149.791L124.917 149.783V135.208C124.917 134.633 125.383 134.167 125.958 134.167H133.25C133.825 134.167 134.292 133.7 134.292 133.125C134.292 132.55 133.825 132.083 133.25 132.083H125.958C124.8 132.083 123.788 132.714 123.249 133.651L117.466 131.177C115.599 130.379 113.524 130.208 111.552 130.69L97.9684 134.01H89.8546C87.9398 134.01 86.3031 135.201 85.6439 136.882Z" fill="#0E0807"/>
</svg>
