<svg width="204" height="204" viewBox="0 0 204 204" fill="none" xmlns="http://www.w3.org/2000/svg">
<path fill-rule="evenodd" clip-rule="evenodd" d="M54.0833 130C54.0833 156.464 75.5364 177.917 102 177.917C128.464 177.917 149.917 156.464 149.917 130C149.917 103.536 128.464 82.0833 102 82.0833C75.5364 82.0833 54.0833 103.536 54.0833 130ZM102 80C74.3858 80 52 102.386 52 130C52 157.614 74.3858 180 102 180C129.614 180 152 157.614 152 130C152 102.386 129.614 80 102 80Z" fill="#0E0807"/>
<path fill-rule="evenodd" clip-rule="evenodd" d="M70.7499 128.958C70.7499 128.603 70.7559 128.25 70.7678 127.898L77.8739 125.037C80.4602 123.996 81.9998 121.336 81.571 118.593C81.3925 117.45 81.8846 116.3 82.8562 115.625L84.6841 114.355C87.7523 112.224 89.1613 108.432 88.2015 104.843L87.3115 101.514C91.8272 99.088 97.0088 97.7083 102.521 97.7083C107.114 97.7083 111.477 98.6663 115.417 100.39C115.405 100.452 115.399 100.515 115.399 100.581V105.645C115.399 107.713 114.054 109.564 112.037 110.225L110.382 110.768C109.929 110.917 109.567 111.269 109.412 111.727L108.14 115.482C107.88 116.25 107.189 116.815 106.351 116.918L106.219 116.935C105.476 117.026 104.752 116.695 104.345 116.094C103.064 114.204 100.143 114.541 99.3537 116.698L97.8801 120.727C96.6271 124.152 96.7665 127.922 98.2686 131.248C99.5444 134.073 101.966 136.233 104.935 137.207L105.606 137.427C106.226 137.63 106.815 137.914 107.357 138.27L107.577 138.414C109.512 139.684 110.915 141.593 111.535 143.79L112.068 145.677C112.718 147.98 115.034 149.394 117.392 148.972C119.131 148.661 120.552 147.402 121.043 145.71L123.407 137.566C123.42 137.523 123.43 137.478 123.437 137.433L124.434 130.89C124.536 130.222 125.354 129.86 125.945 130.296L127.711 131.6C128.971 132.529 130.661 132.648 132.041 131.908L134.241 130.727C133.31 147.149 119.479 160.208 102.521 160.208C100.694 160.208 98.9036 160.057 97.1617 159.766C97.5682 155.086 95.4313 150.973 91.5858 148.208L87.945 145.589C86.0904 144.255 84.8155 142.289 84.3667 140.08L83.9741 138.149C83.7202 136.9 83.0489 135.774 82.0711 134.949C80.3951 133.535 78.05 133.192 76.033 134.061L71.5572 135.988C71.0289 133.728 70.7499 131.375 70.7499 128.958ZM102.521 95.625C83.8393 95.625 68.6665 110.533 68.6665 128.958C68.6665 147.383 83.8393 162.292 102.521 162.292C121.202 162.292 136.375 147.383 136.375 128.958C136.375 110.533 121.202 95.625 102.521 95.625Z" fill="#0E0807"/>
<path d="M76.2882 141.862C73.0692 145.177 73.072 150.513 76.2882 153.833L89.0383 166.998C89.8563 167.843 91.2108 167.844 92.0298 167C96.285 162.616 100.54 158.234 104.794 153.85C108.013 150.535 108.013 145.196 104.794 141.879C101.575 138.563 96.3925 138.563 93.1736 141.879L90.5491 144.582L87.9088 141.862C84.6897 138.546 79.5071 138.546 76.2882 141.862Z" fill="white"/>
<path fill-rule="evenodd" clip-rule="evenodd" d="M75.541 141.136C79.1691 137.399 85.0281 137.399 88.6562 141.136L90.5493 143.086L92.4263 141.153C96.0544 137.416 101.913 137.416 105.542 141.153C109.153 144.874 109.153 150.856 105.542 154.575C102.465 157.747 99.3866 160.917 96.3086 164.088C95.1316 165.3 93.9544 166.513 92.7773 167.725C91.5489 168.991 89.5172 168.99 88.2902 167.723L75.5402 154.558C71.9334 150.834 71.9289 144.856 75.541 141.136ZM87.1615 142.587C84.3515 139.693 79.8454 139.693 77.0357 142.587C74.2097 145.498 74.211 150.191 77.0365 153.108L89.7867 166.273C90.1957 166.696 90.873 166.696 91.2825 166.274C92.4603 165.061 93.638 163.848 94.8157 162.635C97.8931 159.465 100.97 156.295 104.047 153.125C106.873 150.213 106.874 145.517 104.047 142.604C101.237 139.71 96.7308 139.71 93.9211 142.604L91.2966 145.307C91.1004 145.509 90.8308 145.623 90.5492 145.623C90.2676 145.623 89.998 145.509 89.8018 145.307L87.1615 142.587Z" fill="#0E0807"/>
</svg>
