<svg xmlns="http://www.w3.org/2000/svg" viewBox="0 0 204 204"><defs><style>.cls-1{fill:#eae8e1;}.cls-1,.cls-3{stroke:#0e0807;stroke-linecap:round;stroke-linejoin:round;stroke-width:0.75px;}.cls-2,.cls-3{fill:#0e0807;}.cls-2{fill-rule:evenodd;}</style></defs><g id="Warstwa_2" data-name="Warstwa 2"><circle class="cls-1" cx="102" cy="102" r="50"/><path class="cls-2" d="M122.56,56.53a.22.22,0,0,0,0,.11v8.1a7.76,7.76,0,0,1-5.36,7.32l-2.66.86A2.48,2.48,0,0,0,113,74.45l-2,6a3.45,3.45,0,0,1-2.86,2.3l-.21,0a3.12,3.12,0,0,1-3-1.35,4.52,4.52,0,0,0-8,1l-2.36,6.44a22.23,22.23,0,0,0,.62,16.8,17.76,17.76,0,0,0,10.65,9.52l1.07.35a11.14,11.14,0,0,1,2.8,1.35l.35.22a15.3,15.3,0,0,1,6.33,8.59l.84,3a7.47,7.47,0,0,0,14.33,0l3.79-13a1.89,1.89,0,0,1,0-.23L137,105.06a1.52,1.52,0,0,1,2.42-.94l2.81,2.07a6.48,6.48,0,0,0,6.91.5l2.62-1.41c.08-1.08.12-2.19.12-3.31A49.88,49.88,0,0,0,122.56,56.53Zm-38,76.2-5.82-4.19a14.33,14.33,0,0,1-5.72-8.8l-.62-3.09a9,9,0,0,0-3-5.11,9.3,9.3,0,0,0-9.65-1.42l-6.36,2.75a49.93,49.93,0,0,0,40.12,38.24C94,143.67,90.63,137.12,84.51,132.73Zm-16-47.32a4.84,4.84,0,0,1,2.06-4.73l2.93-2a14.11,14.11,0,0,0,5.6-15.21l-1.35-5.07a49.88,49.88,0,0,0-25.6,41.56l10.47-4.22A9.52,9.52,0,0,0,68.5,85.41Z"/><path class="cls-3" d="M148.83,132.11a9.47,9.47,0,0,0-16-6.88h0a9.46,9.46,0,0,0-3.34-2v-.55h-3.7v0a9.44,9.44,0,0,0-6.33,15.93h0L132.86,152H136v-3.17l10.21-10.21h0A9.39,9.39,0,0,0,148.83,132.11Z"/><path class="cls-1" d="M152,132.11a9.46,9.46,0,0,0-16-6.87h0a9.46,9.46,0,0,0-13.38,13.37h0L136,152l13.38-13.38h0A9.43,9.43,0,0,0,152,132.11Z"/></g></svg>